<svg xmlns="http://www.w3.org/2000/svg" viewBox="0 0 1200 630" fill="none">
  <defs>
    <linearGradient id="bg" x1="0" y1="0" x2="1200" y2="630">
      <stop offset="0%" stop-color="#0F172A"/>
      <stop offset="100%" stop-color="#1E293B"/>
    </linearGradient>
    <linearGradient id="accent" x1="0" y1="0" x2="400" y2="400">
      <stop offset="0%" stop-color="#2563EB"/>
      <stop offset="100%" stop-color="#3B82F6"/>
    </linearGradient>
    <linearGradient id="flame" x1="80" y1="180" x2="140" y2="420">
      <stop offset="0%" stop-color="#FCD34D"/>
      <stop offset="50%" stop-color="#F59E0B"/>
      <stop offset="100%" stop-color="#EF4444"/>
    </linearGradient>
  </defs>
  <!-- Background -->
  <rect width="1200" height="630" fill="url(#bg)"/>
  <!-- Decorative circles -->
  <circle cx="1050" cy="100" r="300" fill="#2563EB" opacity="0.08"/>
  <circle cx="150" cy="530" r="200" fill="#3B82F6" opacity="0.06"/>
  <!-- Accent line top -->
  <rect x="0" y="0" width="1200" height="4" fill="url(#accent)"/>
  <!-- Logo icon -->
  <rect x="80" y="180" width="80" height="80" rx="18" fill="url(#accent)"/>
  <path d="M120 195c0 0-16 18-16 32a16 16 0 0 0 32 0c0-14-16-32-16-32z" fill="url(#flame)" opacity="0.9"/>
  <path d="M120 211c0 0-8 9-8 17a8 8 0 0 0 16 0c0-8-8-17-8-17z" fill="white" opacity="0.85"/>
  <!-- Title -->
  <text x="180" y="225" font-family="system-ui, -apple-system, sans-serif" font-size="52" font-weight="800" fill="white">RevizePlyn</text>
  <!-- Subtitle -->
  <text x="82" y="310" font-family="system-ui, -apple-system, sans-serif" font-size="28" fill="#94A3B8">Evidence revizí plynových zařízení</text>
  <!-- Feature pills -->
  <rect x="82" y="370" width="200" height="44" rx="22" fill="#2563EB" opacity="0.15"/>
  <text x="112" y="399" font-family="system-ui, sans-serif" font-size="18" fill="#60A5FA">📋 Správa zakázek</text>
  <rect x="300" y="370" width="200" height="44" rx="22" fill="#10B981" opacity="0.15"/>
  <text x="330" y="399" font-family="system-ui, sans-serif" font-size="18" fill="#34D399">🔧 Evidence zařízení</text>
  <rect x="518" y="370" width="200" height="44" rx="22" fill="#F59E0B" opacity="0.15"/>
  <text x="548" y="399" font-family="system-ui, sans-serif" font-size="18" fill="#FBBF24">📄 Revizní zprávy</text>
  <rect x="736" y="370" width="170" height="44" rx="22" fill="#EF4444" opacity="0.15"/>
  <text x="766" y="399" font-family="system-ui, sans-serif" font-size="18" fill="#F87171">⏰ Hlídání termínů</text>
  <!-- Bottom info -->
  <text x="82" y="530" font-family="system-ui, sans-serif" font-size="20" fill="#475569">Demo aplikace pro revizní techniky plynových zařízení v ČR</text>
  <text x="82" y="565" font-family="system-ui, sans-serif" font-size="16" fill="#64748B">NV č. 191/2022 Sb. • Česky • Mobilní i desktopová verze</text>
</svg>
